<svg width="880" height="600" viewBox="0 0 880 600" xmlns="http://www.w3.org/2000/svg" font-family="Segoe UI, system-ui, sans-serif">
  <defs>
    <linearGradient id="logo" x1="0" y1="0" x2="1" y2="1">
      <stop offset="0" stop-color="#4f8df9"/>
      <stop offset="1" stop-color="#7c3aed"/>
    </linearGradient>
    <filter id="shadow" x="-20%" y="-20%" width="140%" height="140%">
      <feDropShadow dx="0" dy="4" stdDeviation="8" flood-color="#000" flood-opacity="0.35"/>
    </filter>
  </defs>

  <!-- Window -->
  <rect width="880" height="600" rx="10" fill="#1b1b1d"/>

  <!-- Header: logo, title, view switcher, gear -->
  <line x1="0" y1="50" x2="880" y2="50" stroke="#38383d"/>
  <rect x="16" y="12" width="26" height="26" rx="7" fill="url(#logo)"/>
  <path d="M22 19h14a2 2 0 0 1 2 2v8a2 2 0 0 1-2 2h-6l-4 3v-3h-4a2 2 0 0 1-2-2v-8a2 2 0 0 1 2-2Z" fill="#fff"/>
  <text x="52" y="31" fill="#f3f3f3" font-size="16" font-weight="600">Prompt Saver</text>

  <rect x="166" y="13" width="62" height="24" rx="12" fill="#3b82f6"/>
  <text x="197" y="29" fill="#fff" font-size="12" font-weight="600" text-anchor="middle">Home</text>
  <rect x="234" y="13" width="64" height="24" rx="12" fill="none" stroke="#38383d"/>
  <text x="266" y="29" fill="#9ca3af" font-size="12" text-anchor="middle">Coding</text>
  <rect x="304" y="13" width="56" height="24" rx="12" fill="none" stroke="#38383d"/>
  <text x="332" y="29" fill="#9ca3af" font-size="12" text-anchor="middle">Mail</text>

  <path d="M840 17c4.5 0 8 3.6 8 8s-3.5 8-8 8-8-3.6-8-8 3.5-8 8-8Z" fill="none" stroke="#9ca3af" stroke-width="2"/>
  <circle cx="840" cy="25" r="3" fill="#9ca3af"/>

  <!-- Grid 5x4, free placement, per-prompt colors, auto-fit text -->
  <g font-weight="600" text-anchor="middle">
    <!-- row 1 -->
    <rect x="18" y="64" width="162" height="100" rx="10" fill="#1e3a8a" stroke="#3b82f6"/>
    <text x="99" y="120" fill="#f3f3f3" font-size="19">Code Review</text>
    <rect x="190" y="64" width="162" height="100" rx="10" fill="#242427" stroke="#38383d"/>
    <text x="271" y="120" fill="#f3f3f3" font-size="19">Bug Report</text>
    <rect x="362" y="64" width="162" height="100" rx="10" fill="#7f1d1d" stroke="#38383d"/>
    <text x="443" y="112" fill="#f3f3f3" font-size="17">Translate</text>
    <text x="443" y="134" fill="#f3f3f3" font-size="17">EN → DE</text>
    <rect x="534" y="64" width="162" height="100" rx="10" fill="#242427" stroke="#38383d"/>
    <text x="615" y="120" fill="#f3f3f3" font-size="19">Summarize</text>
    <rect x="706" y="64" width="162" height="100" rx="10" fill="#14532d" stroke="#38383d"/>
    <text x="787" y="120" fill="#f3f3f3" font-size="19">SQL Helper</text>
    <!-- row 2 -->
    <rect x="18" y="172" width="162" height="100" rx="10" fill="#242427" stroke="#38383d"/>
    <text x="99" y="228" fill="#f3f3f3" font-size="19">Unit Tests</text>
    <rect x="190" y="172" width="162" height="100" rx="10" fill="#4c1d95" stroke="#38383d"/>
    <text x="271" y="228" fill="#f3f3f3" font-size="18">E-Mail Draft</text>
    <rect x="362" y="172" width="162" height="100" rx="10" fill="#16a34a"/>
    <text x="443" y="222" fill="#ffffff" font-size="18">Meeting Notes</text>
    <rect x="395" y="244" width="96" height="20" rx="10" fill="#3b82f6"/>
    <text x="443" y="258" fill="#fff" font-size="11">Copied!</text>
    <rect x="534" y="172" width="162" height="100" rx="10" fill="#242427" stroke="#38383d"/>
    <text x="615" y="228" fill="#f3f3f3" font-size="18">Regex Helper</text>
    <!-- row 3 -->
    <rect x="18" y="280" width="162" height="100" rx="10" fill="#713f12" stroke="#38383d"/>
    <text x="99" y="336" fill="#f3f3f3" font-size="19">Brainstorm</text>
    <rect x="190" y="280" width="162" height="100" rx="10" fill="#242427" stroke="#38383d"/>
    <text x="271" y="328" fill="#f3f3f3" font-size="17">Commit</text>
    <text x="271" y="350" fill="#f3f3f3" font-size="17">Message</text>
  </g>

  <!-- Composer -->
  <line x1="0" y1="534" x2="880" y2="534" stroke="#38383d"/>
  <rect x="16" y="546" width="744" height="40" rx="10" fill="#242427" stroke="#38383d"/>
  <text x="30" y="571" fill="#9ca3af" font-size="13">Type a prompt…</text>
  <rect x="772" y="546" width="92" height="40" rx="10" fill="#3b82f6"/>
  <text x="818" y="571" fill="#fff" font-size="14" font-weight="600" text-anchor="middle">Save</text>

  <!-- Floating pill (always on top, over any app) -->
  <g filter="url(#shadow)">
    <rect x="650" y="420" width="170" height="48" rx="24" fill="#3b82f6"/>
    <text x="735" y="450" fill="#fff" font-size="15" font-weight="600" text-anchor="middle">Code Review</text>
  </g>
  <text x="735" y="492" fill="#9ca3af" font-size="11" text-anchor="middle">floating quick-copy button</text>
</svg>
