<svg width="512" height="512" viewBox="0 0 512 512" xmlns="http://www.w3.org/2000/svg">
  <defs>
    <linearGradient id="bg" x1="0.1" y1="0" x2="0.9" y2="1">
      <stop offset="0" stop-color="#5b9bff"/>
      <stop offset="0.5" stop-color="#3b6ef6"/>
      <stop offset="1" stop-color="#7c3aed"/>
    </linearGradient>
    <linearGradient id="shine" x1="0" y1="0" x2="0" y2="1">
      <stop offset="0" stop-color="#ffffff" stop-opacity="0.25"/>
      <stop offset="1" stop-color="#ffffff" stop-opacity="0"/>
    </linearGradient>
    <linearGradient id="bubble" x1="0" y1="0" x2="0" y2="1">
      <stop offset="0" stop-color="#ffffff"/>
      <stop offset="1" stop-color="#eef2ff"/>
    </linearGradient>
    <filter id="soft" x="-20%" y="-20%" width="140%" height="140%">
      <feDropShadow dx="0" dy="14" stdDeviation="18" flood-color="#1e1b4b" flood-opacity="0.28"/>
    </filter>
  </defs>
  <rect x="24" y="24" width="464" height="464" rx="136" fill="url(#bg)"/>
  <rect x="24" y="24" width="464" height="240" rx="136" fill="url(#shine)"/>
  <g transform="translate(25.6 25.6) scale(0.9)">
    <g filter="url(#soft)">
      <path d="M118 80h276a54 54 0 0 1 54 54v157a54 54 0 0 1-54 54H236L138 430a16 16 0 0 1-27-12.8V345h7a54 54 0 0 1-54-54V134a54 54 0 0 1 54-54Z"
            fill="url(#bubble)"/>
    </g>
    <path d="M160 154l67 59-67 59" fill="none" stroke="#4338ca" stroke-width="40"
          stroke-linecap="round" stroke-linejoin="round"/>
    <rect x="266" y="245" width="105" height="40" rx="20" fill="#4338ca"/>
    <path d="M419 38l15 36.6 36.6 15-36.6 15L419 141l-15-36.4-36.6-15 36.6-15Z" fill="#ffe066"/>
    <path d="M372 150l6.4 15.6 15.6 6.4-15.6 6.4L372 194l-6.4-15.6-15.6-6.4 15.6-6.4Z" fill="#ffe066" fill-opacity="0.85"/>
  </g>
</svg>
