<svg width="512" height="512" viewBox="0 0 512 512" xmlns="http://www.w3.org/2000/svg">
  <defs>
    <linearGradient id="bg" x1="0" y1="0" x2="1" y2="1">
      <stop offset="0" stop-color="#4f8df9"/>
      <stop offset="0.55" stop-color="#3b6ef6"/>
      <stop offset="1" stop-color="#7c3aed"/>
    </linearGradient>
    <linearGradient id="shine" x1="0" y1="0" x2="0" y2="1">
      <stop offset="0" stop-color="#ffffff" stop-opacity="0.22"/>
      <stop offset="1" stop-color="#ffffff" stop-opacity="0"/>
    </linearGradient>
  </defs>
  <rect x="24" y="24" width="464" height="464" rx="136" fill="url(#bg)"/>
  <rect x="24" y="24" width="464" height="232" rx="136" fill="url(#shine)"/>
  <g transform="translate(25.6 25.6) scale(0.9)">
    <path d="M118 80h276a54 54 0 0 1 54 54v157a54 54 0 0 1-54 54H236L138 430a16 16 0 0 1-27-12.8V345h7a54 54 0 0 1-54-54V134a54 54 0 0 1 54-54Z"
          fill="#ffffff" fill-opacity="0.97"/>
    <path d="M160 154l67 59-67 59" fill="none" stroke="#4338ca" stroke-width="40"
          stroke-linecap="round" stroke-linejoin="round"/>
    <rect x="266" y="245" width="105" height="40" rx="20" fill="#4338ca"/>
    <path d="M419 42l13.6 33.4 33.4 13.6-33.4 13.6L419 136l-13.6-33.4L372 89l33.4-13.6Z" fill="#ffe066"/>
  </g>
</svg>
