<svg width="32" height="32" viewBox="0 0 32 32" xmlns="http://www.w3.org/2000/svg">
  <defs>
    <linearGradient id="bg" x1="0" y1="0" x2="1" y2="1">
      <stop offset="0" stop-color="#4f8df9"/>
      <stop offset="0.55" stop-color="#3b6ef6"/>
      <stop offset="1" stop-color="#7c3aed"/>
    </linearGradient>
    <linearGradient id="shine" x1="0" y1="0" x2="0" y2="1">
      <stop offset="0" stop-color="#ffffff" stop-opacity="0.22"/>
      <stop offset="1" stop-color="#ffffff" stop-opacity="0"/>
    </linearGradient>
  </defs>
  <!-- squircle background -->
  <rect x="1.5" y="1.5" width="29" height="29" rx="8.5" fill="url(#bg)"/>
  <rect x="1.5" y="1.5" width="29" height="14" rx="8.5" fill="url(#shine)"/>
  <g transform="translate(1.6 1.6) scale(0.9)">
    <!-- chat bubble -->
    <path d="M7.4 5h17.2a3.4 3.4 0 0 1 3.4 3.4v9.8a3.4 3.4 0 0 1-3.4 3.4h-9.9L8.6 26.9a1 1 0 0 1-1.7-0.8v-4.5h.5a3.4 3.4 0 0 1-3.4-3.4V8.4A3.4 3.4 0 0 1 7.4 5Z"
          fill="#ffffff" fill-opacity="0.97"/>
    <!-- prompt caret + cursor -->
    <path d="M10 9.6l4.2 3.7-4.2 3.7" fill="none" stroke="#4338ca" stroke-width="2.5"
          stroke-linecap="round" stroke-linejoin="round"/>
    <rect x="16.6" y="15.3" width="6.6" height="2.5" rx="1.25" fill="#4338ca"/>
    <!-- spark -->
    <path d="M26.2 2.6l.85 2.1 2.1.85-2.1.85-.85 2.1-.85-2.1-2.1-.85 2.1-.85Z" fill="#ffe066"/>
  </g>
</svg>
